<?xml version="1.0" encoding="utf-8"?>
<!-- Generator: Adobe Illustrator 24.1.1, SVG Export Plug-In . SVG Version: 6.00 Build 0)  -->
<svg version="1.1" id="Layer_1" xmlns="http://www.w3.org/2000/svg" xmlns:xlink="http://www.w3.org/1999/xlink" x="0px" y="0px"
	 viewBox="0 0 360 360" style="enable-background:new 0 0 360 360;" xml:space="preserve">
<style type="text/css">
	.st0{fill:url(#SVGID_1_);}
	.st1{fill:url(#SVGID_2_);}
	.st2{fill:url(#SVGID_3_);}
	.st3{enable-background:new    ;}
	.st4{fill:#194189;}
	.st5{fill:#F5841C;}
</style>
<g>
	
		<linearGradient id="SVGID_1_" gradientUnits="userSpaceOnUse" x1="128.8238" y1="118.3483" x2="261.8988" y2="348.841" gradientTransform="matrix(1 0 0 -1 0 362)">
		<stop  offset="0" style="stop-color:#F5841C"/>
		<stop  offset="0.1781" style="stop-color:#F58819"/>
		<stop  offset="0.3663" style="stop-color:#F69513"/>
		<stop  offset="0.5026" style="stop-color:#F8A30E"/>
		<stop  offset="0.5562" style="stop-color:#FAB00D"/>
		<stop  offset="0.6404" style="stop-color:#F7BD14"/>
		<stop  offset="0.7523" style="stop-color:#F8C417"/>
		<stop  offset="1" style="stop-color:#F9C618"/>
	</linearGradient>
	<path class="st0" d="M315,150.8c11.3-21.7,14.6-47.5,6.8-73.1C309.1,37,272.2,9.4,229.4,9.4c-3.9,0-7.7,0.3-11.6,0.9h-0.3
		c-0.6,0-1.2,0-1.5,0.3c-4.8,0.6-9.8,1.8-14.3,3c-11.3,3.6-21.4,8.6-30.6,15.4L94,74.8c-2.1,1.2-2.7,3.9-1.5,5.9
		c1.2,2.1,3.9,2.7,5.9,1.5l51.1-30.3c-1.8,2.7-3.6,5.3-5.1,8.3c-6.8,12.8-10.7,26.7-11.3,40.7l-34.8,20.5c-2.1,1.2-2.7,3.9-1.5,5.9
		c1.2,2.4,3.9,3.3,6.5,1.5l30-17.8c0.3,6.2,1.5,12.5,3,18.7c0,0.9,0.3,1.5,0.6,2.1c0.3,0.6,0.3,1.2,0.6,1.8c2.1,6.8,4.8,13.1,8.3,19
		l-79.6,47.5c-2.1,1.2-2.7,3.9-1.5,5.9c1.2,2.1,3.9,2.7,5.9,1.5l79-46.9c7.4,11,16.9,20.2,28.2,27l-55,32.4
		c-2.1,1.2-2.7,3.9-1.5,5.9c1.2,2.1,3.9,2.7,5.9,1.5l59.7-35.1c12.8,6.2,27.3,9.8,42.5,9.8c3.6,0,6.8-0.3,10.4-0.6l-44.9,26.7
		c-2.1,1.2-2.7,3.9-1.5,5.9c1.2,2.1,3.9,2.7,5.9,1.5l79.3-46.9c0.3-0.3,0.6-0.3,0.6-0.6c14.6-8.9,26.4-21.1,34.5-35.4
		C314.4,152.6,315,151.7,315,150.8z M307.3,145.8c-7.7,0.6-32.1,1.2-60-6.8c7.4-11.3,21.1-18.1,34.2-25c13.4-7.1,27-14.3,33.6-25.8
		C319.2,108,316.2,128.5,307.3,145.8z M309.4,70.9C309.4,70.9,309.4,71.2,309.4,70.9c1.2,17.5-14.6,25.5-32.4,34.8
		c-14.3,7.4-30.3,15.4-38.9,30c-5.3-1.8-10.7-4.2-16-6.8l51.1-98.9C289.2,39.4,301.9,53.7,309.4,70.9z M265.4,26.4l-51.1,98.9
		c-5.1-3-10.1-5.9-14.9-9.5C206,103,206,87,206,71.5c0-20.5,0-40.1,13.1-51.7c3.6-0.3,7.1-0.6,10.4-0.6
		C242.2,18.6,254.4,21.3,265.4,26.4z M203.6,22.5c0.3,0,0.6,0,0.6-0.3c-8,13.7-8,31.2-8,48.4c0,14.6,0,28.5-4.8,38.9
		c-14.3-11.9-27.3-27.6-37.4-48.4C165.3,42.7,182.8,29,203.6,22.5z M149.2,70.9c10.7,19.6,23.8,34.8,37.7,46.3
		c-13.7,16.9-35.9,11.3-42.8,8.9C139.7,107.8,141.5,88.4,149.2,70.9z M155.8,153.5c0-0.3-0.3-0.6-0.3-0.9c-0.3-0.6-0.6-0.9-1.2-1.2
		c-2.7-4.5-4.8-9.2-6.8-14.3c14,3,33.9,2.4,46.9-14c5.1,3.9,10.4,7.1,15.7,10.1L184.9,182C173.3,174.9,163.2,165.1,155.8,153.5z
		 M192.9,185.9l25.3-48.7c5.6,2.7,11,5.1,16.6,6.8c-7.7,22,3.6,38.6,14.6,47.5c-6.5,1.5-13.4,2.4-19.9,2.4
		C216.4,193.6,204.2,190.9,192.9,185.9z M260.3,188c-5.9-3.3-25.5-16.9-16.9-41.3c24.7,7.4,46.6,8.3,58.5,8
		C292.1,169.5,277.9,181.4,260.3,188z"/>
	
		<linearGradient id="SVGID_2_" gradientUnits="userSpaceOnUse" x1="160.6277" y1="99.4531" x2="175.6457" y2="125.465" gradientTransform="matrix(1 0 0 -1 0 362)">
		<stop  offset="0" style="stop-color:#F5841C"/>
		<stop  offset="0.1781" style="stop-color:#F58819"/>
		<stop  offset="0.3663" style="stop-color:#F69513"/>
		<stop  offset="0.5026" style="stop-color:#F8A30E"/>
		<stop  offset="0.5562" style="stop-color:#FAB00D"/>
		<stop  offset="0.6404" style="stop-color:#F7BD14"/>
		<stop  offset="0.7523" style="stop-color:#F8C417"/>
		<stop  offset="1" style="stop-color:#F9C618"/>
	</linearGradient>
	<path class="st1" d="M178.4,238.8c-0.9,0-1.5,0-2.1,0.9l-20.8,12.5c-2.1,1.2-2.7,3.9-1.5,5.9c1.2,2.1,3.9,2.7,5.9,1.5l20.8-12.5
		c2.1-1.2,2.7-3.9,1.5-5.9C181.6,239.6,180.1,238.8,178.4,238.8z"/>
	
		<linearGradient id="SVGID_3_" gradientUnits="userSpaceOnUse" x1="60.528" y1="202.0249" x2="79.2561" y2="234.4631" gradientTransform="matrix(1 0 0 -1 0 362)">
		<stop  offset="0" style="stop-color:#F5841C"/>
		<stop  offset="0.1781" style="stop-color:#F58819"/>
		<stop  offset="0.3663" style="stop-color:#F69513"/>
		<stop  offset="0.5026" style="stop-color:#F8A30E"/>
		<stop  offset="0.5562" style="stop-color:#FAB00D"/>
		<stop  offset="0.6404" style="stop-color:#F7BD14"/>
		<stop  offset="0.7523" style="stop-color:#F8C417"/>
		<stop  offset="1" style="stop-color:#F9C618"/>
	</linearGradient>
	<path class="st2" d="M87.4,133.3c-0.9-1.5-2.4-2.4-3.9-2.4c-0.9,0-1.5,0-2.1,0.9l-27.9,16.9c-2.1,1.2-2.7,3.9-1.5,5.9
		c1.2,2.1,3.9,2.7,5.9,1.5L86,139.2C88,138.1,88.6,135.1,87.4,133.3z"/>
</g>
<g>
	<g class="st3">
		<path class="st4" d="M30.7,330.8l9-42.3h9l-3.4,16h10.4l3.4-16h9l-9,42.3h-9l3.9-18.3H43.5l-3.8,18.3H30.7z"/>
		<path class="st4" d="M102.8,303.5c0,3.8-0.6,7.7-1.7,11.5c-1.1,3.8-2.6,7-4.5,9.6c-1.7,2.4-3.7,4.2-5.9,5.5s-4.7,1.8-7.4,1.8
			c-4.5,0-8-1.4-10.5-4.2c-2.5-2.8-3.7-6.8-3.7-11.9c0-3.7,0.6-7.5,1.7-11.5c1.1-3.9,2.6-7.1,4.3-9.5c1.7-2.4,3.8-4.3,6.2-5.6
			s4.9-2,7.6-2c4.3,0,7.7,1.4,10.1,4.3C101.6,294.4,102.8,298.4,102.8,303.5z M88.5,295.2c-1.5,0-2.8,0.5-4,1.4
			c-1.1,0.9-2.2,2.4-3.1,4.4c-0.9,1.9-1.6,4.4-2.3,7.3c-0.6,3-1,5.5-1,7.6c0,2.6,0.5,4.5,1.4,5.9c1,1.4,2.3,2.1,4,2.1
			c1.5,0,2.9-0.6,4.1-1.8c1.2-1.2,2.3-2.9,3.2-5.2c0.8-2.2,1.5-4.6,2-7.2c0.5-2.6,0.8-5,0.8-7c0-2.3-0.5-4.1-1.4-5.5
			S90.1,295.2,88.5,295.2z"/>
		<path class="st4" d="M102.2,330.8l9-42.3h9.4l0.5,27.8l12.2-27.8h9.9l-9.2,42.3h-7.6l7.7-32.4l-13.6,32.4h-3.9l-0.5-32.4
			l-6.2,32.4H102.2z"/>
		<path class="st4" d="M141.7,330.8l9-42.3h26.6l-1.5,7.6h-17.6l-1.9,9h16.6l-1.6,7.5h-16.6l-2.3,10.5h19l-1.6,7.6H141.7z"/>
	</g>
</g>
<g class="st3">
	<path class="st5" d="M188.9,330.8l9-42.3h10.6c5.3,0,9.2,1.3,11.7,3.9s3.9,6.5,3.9,11.7c0,2.9-0.4,6-1.3,9.3
		c-0.9,3.3-2.1,6.1-3.5,8.5c-1.9,3.2-4.1,5.5-6.5,6.9s-5.8,2-9.9,2H188.9z M199.5,323h2.2c2.1,0,3.7-0.2,4.8-0.5s2.1-0.9,3-1.7
		c1.5-1.3,2.8-3.5,3.9-6.7c1.1-3.2,1.6-6.5,1.6-9.9c0-3-0.6-5.1-1.7-6.3c-1.1-1.2-3.1-1.8-6-1.8h-2.1L199.5,323z"/>
	<path class="st5" d="M234.4,288.5h9.1l-5.6,25.9c-0.1,0.7-0.2,1.4-0.3,2.1c-0.1,0.7-0.1,1.4-0.1,2.1c0,1.7,0.4,3,1.3,3.9
		c0.8,0.9,2,1.4,3.5,1.4c1.8,0,3.2-0.6,4.2-1.9c1-1.3,1.9-3.7,2.7-7.4l5.7-26.1h8.8l-5.7,27.1c-1.2,5.7-3.1,9.8-5.7,12.5
		c-2.6,2.6-6.1,3.9-10.5,3.9c-4.1,0-7.3-1.1-9.6-3.4s-3.5-5.4-3.5-9.4c0-0.9,0.1-1.9,0.2-2.9c0.1-1,0.3-2.1,0.5-3.2L234.4,288.5z"/>
	<path class="st5" d="M262.6,330.8l9-42.3h9.3l4.9,29.9l6.3-29.9h7.9l-8.8,42.3h-9.6l-4.7-30.5l-6.4,30.5H262.6z"/>
	<path class="st5" d="M310.6,316.5l-3,14.3h-8.9l8.8-42.3h9l-3.2,15.2l14.9-15.2h10.9L321,306.2l11.5,24.6h-9.8l-8.2-18.3
		L310.6,316.5z"/>
</g>
</svg>
